# xmcd
#
# Track frame offsets:
#	150
#	14256
#	26848
#	39266
#	51607
#	62729
#	73386
#	87533
#	99510
#	112545
#	125909
#	139623
#	152873
#	166490
#	177705
#	190211
#	200503
#	211452
#	224300
#	237166
#	250216
#	261406
#
# Disc length: 3638 seconds
#
# Revision: 1
# Processed by: cddbd v1.5.2PL0 Copyright (c) Steve Scherf et al.
# Submitted via: audiograbber 1.83.01
#
DISCID=540e3416
DTITLE=Variuos Artists - The Blues Roots of The Rolling Stones
DYEAR=2008
DGENRE=Blues
TTITLE0=Muddy Waters - Rolling Stone
TTITLE1=Slim Harpo - I Got Love If You Want It
TTITLE2=Elmore James - Dust My Broom
TTITLE3=Chuck berry - You Can´t Catch Me
TTITLE4=Bo Diddley - Diddley Daddy
TTITLE5=Buddy Holly - Not Fade Away
TTITLE6=John Lee hooker - Boogie Chillun
TTITLE7=Jimmy Reed - Honest I Do
TTITLE8=Robert Wilkins - Rolling Stone  (Part 1)
TTITLE9=Lerry carr and Scrupper Blachwell - When The Sun Goes Down
TTITLE10=Slim Harpo - I´m The King Be
TTITLE11=Muddy Waters - Mannish Boy
TTITLE12=B.B. King - Three O´Clock In The Morningt
TTITLE13=Bo Diddley - Who Do You Love
TTITLE14=Muddy Waters - Hoochie Coochie Man
TTITLE15=Robert Johnson - Stop Breakin´ Down Blues
TTITLE16=Bling Boy Fuller - Get Your Yas Yas Out
TTITLE17=Robert Petway - Catfish Blues
TTITLE18=Howlin´ Wolf - Evil
TTITLE19=Robert Wilkins - That´s No Way To Get Along
TTITLE20=Robert Johnson - Love In Vain
TTITLE21=Muddy Waters - I Want ToBe Loved 
EXTD=YEAR: 2008
EXTT0=
EXTT1=
EXTT2=
EXTT3=
EXTT4=
EXTT5=
EXTT6=
EXTT7=
EXTT8=
EXTT9=
EXTT10=
EXTT11=
EXTT12=
EXTT13=
EXTT14=
EXTT15=
EXTT16=
EXTT17=
EXTT18=
EXTT19=
EXTT20=
EXTT21=
PLAYORDER=
